<?xml version="1.0" standalone="no"?>
<!DOCTYPE svg PUBLIC "-//W3C//DTD SVG 20010904//EN"
 "http://www.w3.org/TR/2001/REC-SVG-20010904/DTD/svg10.dtd">
<svg version="1.0" xmlns="http://www.w3.org/2000/svg"
 width="400.000000pt" height="400.000000pt" viewBox="0 0 400.000000 400.000000"
 preserveAspectRatio="xMidYMid meet">
<metadata>
Created by potrace 1.14, written by Peter Selinger 2001-2017
</metadata>
<g transform="translate(0.000000,400.000000) scale(0.100000,-0.100000)"
fill="#000000" stroke="none">
<path d="M0 2000 l0 -2000 2000 0 2000 0 0 2000 0 2000 -2000 0 -2000 0 0
-2000z m1295 1559 c-5 -29 -10 -38 -16 -28 -13 21 -11 67 4 72 18 7 20 2 12
-44z m1414 35 c2 -2 -4 -25 -14 -51 -15 -39 -20 -44 -26 -28 -4 11 -8 37 -8
58 -1 35 1 38 22 31 12 -3 24 -8 26 -10z m88 -129 c36 -72 76 -139 138 -233
41 -63 44 -72 34 -98 -6 -16 -26 -94 -44 -174 -35 -152 -44 -179 -120 -375
-64 -164 -86 -222 -133 -347 -58 -153 -55 -151 -79 -61 -23 86 -58 184 -92
252 -11 25 -21 57 -21 72 0 19 -9 34 -30 49 -17 12 -30 26 -30 31 0 5 -4 15
-10 22 -5 7 -30 36 -55 66 -24 30 -42 58 -39 63 3 5 1 7 -4 6 -5 -2 -29 17
-53 40 -51 52 -126 92 -171 92 -32 1 -32 2 -13 16 51 38 147 94 162 94 9 0 13
3 10 7 -4 3 3 13 16 22 12 9 22 14 22 13 0 -5 111 95 193 173 116 110 246 299
244 355 l-1 30 23 -28 c13 -15 37 -54 53 -87z m-1472 -70 c76 -115 247 -287
387 -388 58 -42 109 -77 112 -77 3 0 27 -13 53 -30 l47 -30 -35 0 c-143 -1
-345 -236 -459 -535 -12 -33 -26 -69 -31 -80 -4 -11 -13 -45 -19 -75 -7 -30
-14 -64 -17 -74 -5 -18 -37 57 -148 349 -19 50 -55 144 -80 209 -25 66 -57
174 -70 240 -14 67 -34 152 -45 190 l-20 70 64 100 c36 56 84 137 107 181 24
44 50 88 59 98 14 17 16 15 25 -20 6 -21 37 -78 70 -128z m750 -554 c29 -5 7
-8 -81 -9 -67 -1 -133 -6 -148 -12 -35 -13 -46 -12 -22 2 39 22 178 33 251 19z
m-410 -213 c2 -12 9 -51 15 -85 12 -61 12 -62 -19 -105 -17 -24 -59 -83 -92
-133 -34 -49 -77 -106 -94 -126 -49 -55 -75 -152 -96 -359 -7 -63 -18 -135
-25 -160 -8 -25 -14 -56 -15 -70 0 -23 -1 -23 -9 -5 -36 84 -181 797 -166 813
3 3 2 10 -3 16 -4 6 -11 36 -15 66 -6 52 -4 48 54 -85 34 -77 82 -193 108
-257 25 -65 48 -118 51 -118 3 0 19 42 34 93 41 132 95 272 135 347 44 84 122
203 129 197 2 -3 6 -16 8 -29z m683 -12 c18 -24 32 -47 32 -49 0 -3 -12 -2
-27 2 -16 4 -34 6 -42 3 -10 -3 -12 0 -8 12 4 10 7 31 7 47 0 16 1 29 3 29 2
0 18 -20 35 -44z m-263 13 c44 -6 91 -16 105 -24 128 -68 123 -66 182 -60 36
4 64 3 78 -5 30 -16 15 -28 -40 -33 l-45 -4 48 -1 c40 -2 48 -5 45 -19 -8 -44
-143 -72 -233 -49 -16 5 -82 11 -145 15 -63 4 -122 10 -130 14 -11 5 -20 -4
-32 -31 -25 -53 -110 -151 -133 -153 -17 -2 -24 -3 -45 -12 -32 -12 -205 -67
-213 -67 -4 0 -2 10 4 23 15 28 152 207 183 238 12 13 27 32 32 41 5 9 35 46
68 83 l58 66 67 -6 c36 -3 102 -11 146 -16z m744 -159 c-10 -58 -24 -139 -29
-180 -6 -41 -24 -140 -40 -220 -15 -80 -35 -181 -44 -225 -37 -191 -142 -630
-167 -693 -5 -13 -9 -33 -9 -45 0 -12 -19 -99 -43 -194 l-42 -172 -28 87 c-15
48 -43 146 -62 217 -19 72 -53 196 -74 278 -58 215 -58 211 -26 244 38 40 60
96 75 189 9 62 9 95 1 133 -6 29 -11 89 -11 135 l0 82 -51 75 -51 74 18 72 18
73 44 0 c46 0 118 17 139 32 7 6 14 1 18 -14 7 -23 14 -42 54 -130 12 -26 21
-52 21 -58 0 -17 64 -210 70 -210 5 0 69 154 188 447 25 62 47 112 48 110 1
-1 -7 -49 -17 -107z m-732 -123 c70 -39 221 -222 209 -253 -3 -8 -1 -12 4 -9
5 3 9 -9 8 -30 l-1 -35 -24 41 c-12 22 -20 46 -16 52 3 6 1 7 -5 3 -7 -4 -12
-1 -12 8 0 9 -6 16 -13 16 -7 0 -22 8 -33 18 -14 13 -32 17 -64 14 -88 -6
-336 -64 -354 -83 -14 -13 -8 -12 141 21 74 17 163 30 199 30 62 0 68 -2 100
-34 45 -45 45 -63 -1 -58 -43 5 -152 -27 -268 -79 -79 -35 -191 -98 -176 -99
4 0 59 25 123 55 64 30 161 69 216 86 96 30 101 31 126 14 46 -30 69 -97 68
-202 0 -59 -4 -97 -12 -105 -7 -7 -12 -19 -12 -27 0 -19 -57 -111 -68 -111 -4
0 -17 41 -29 90 l-23 90 40 41 c38 39 57 75 46 86 -5 5 -20 -9 -82 -80 -45
-51 -92 -77 -141 -77 -43 0 -57 -13 -27 -24 9 -3 24 -6 35 -6 24 0 16 -18 -34
-74 -23 -26 -39 -36 -48 -31 -8 5 -11 4 -6 0 4 -5 -7 -24 -25 -42 -34 -35 -29
-42 12 -18 37 21 38 19 29 -32 -4 -27 -17 -113 -29 -193 -31 -216 -45 -272
-90 -358 -55 -107 -76 -137 -84 -120 -3 7 -3 3 0 -9 3 -13 2 -23 -3 -23 -4 0
-21 -20 -38 -45 -17 -25 -36 -43 -43 -40 -7 3 -10 0 -7 -6 6 -9 -44 -74 -128
-165 -21 -23 -45 -50 -53 -60 -11 -13 -17 -15 -20 -7 -3 7 -17 29 -31 50 -14
21 -45 70 -68 108 -110 184 -143 266 -131 327 4 18 16 92 26 163 21 134 47
278 82 445 23 114 35 192 48 325 11 111 27 198 42 231 14 30 69 58 168 83 123
32 208 60 264 88 53 27 152 62 176 62 8 0 25 -5 37 -12z"/>
</g>
</svg>
